<!-- icon666.com - MILLIONS vector ICONS FREE --><svg fill="none" viewBox="0 0 128 128" xmlns="http://www.w3.org/2000/svg" xmlns:xlink="http://www.w3.org/1999/xlink"><linearGradient id="paint0_linear_4_417" gradientUnits="userSpaceOnUse" x1="64" x2="64" y1="14" y2="114"><stop offset="0" stop-color="#77c852"></stop><stop offset="1" stop-color="#77c852" stop-opacity="0"></stop></linearGradient><g clip-rule="evenodd" fill-rule="evenodd"><path d="m79 75v-12c0-7.732-6.268-14-14-14h-12v-25c0-5.5228 4.4771-10 10-10h41c5.523 0 10 4.4771 10 10v41c0 5.5228-4.477 10-10 10zm12-31.5c0 4.1421-3.3579 7.5-7.5 7.5s-7.5-3.3579-7.5-7.5 3.3579-7.5 7.5-7.5 7.5 3.3579 7.5 7.5z" fill="#00af90" style="fill: rgb(255, 255, 255);"></path><path d="m79 75v-12c0-7.732-6.268-14-14-14h-12v-25c0-5.5228 4.4771-10 10-10h41c5.523 0 10 4.4771 10 10v41c0 5.5228-4.477 10-10 10zm12-31.5c0 4.1421-3.3579 7.5-7.5 7.5s-7.5-3.3579-7.5-7.5 3.3579-7.5 7.5-7.5 7.5 3.3579 7.5 7.5z" fill="url(#paint0_linear_4_417)" fill-opacity=".7" style="fill: rgb(0, 0, 0);"></path><path d="m14 104c0 5.523 4.4772 10 10 10h41c5.5229 0 10-4.477 10-10v-41c0-5.5229-4.4772-10-10-10h-41c-5.5228 0-10 4.4772-10 10zm43.5-25c4.1421 0 7.5-3.3579 7.5-7.5s-3.3579-7.5-7.5-7.5-7.5 3.3579-7.5 7.5 3.3579 7.5 7.5 7.5zm-25 25c4.1421 0 7.5-3.358 7.5-7.5 0-4.1421-3.3579-7.5-7.5-7.5s-7.5 3.3579-7.5 7.5c0 4.142 3.3579 7.5 7.5 7.5z" fill="#00af90" style="fill: rgb(255, 255, 255);"></path><path d="m14 104c0 5.523 4.4772 10 10 10h41c5.5229 0 10-4.477 10-10v-41c0-5.5229-4.4772-10-10-10h-41c-5.5228 0-10 4.4772-10 10zm43.5-25c4.1421 0 7.5-3.3579 7.5-7.5s-3.3579-7.5-7.5-7.5-7.5 3.3579-7.5 7.5 3.3579 7.5 7.5 7.5zm-25 25c4.1421 0 7.5-3.358 7.5-7.5 0-4.1421-3.3579-7.5-7.5-7.5s-7.5 3.3579-7.5 7.5c0 4.142 3.3579 7.5 7.5 7.5z" fill="url(#paint0_linear_4_417)" fill-opacity=".7" style="fill: rgb(0, 0, 0);"></path></g></svg>