<svg width="60" height="60" viewBox="0 0 60 60" fill="none" xmlns="http://www.w3.org/2000/svg">
<g id="Game_Mode 1">
<g id="Group">
<g id="Group_2">
<path id="Vector" d="M51.7734 6.70312L36.5156 2.625C32.2968 1.5 27.9609 4.00781 26.8359 8.20312L25.1015 14.6953C24.9843 14.9531 24.9375 15.2109 24.9375 15.4922C24.9375 16.5937 25.8281 17.4609 26.9062 17.4609C27.75 17.4609 28.4531 16.9453 28.7578 16.1953H28.7812L30.6562 9.21094C31.2187 7.10156 33.3984 5.85937 35.5078 6.42187L50.789 10.5234C52.8984 11.0859 54.1406 13.2656 53.5781 15.375L49.4765 30.6562C48.914 32.7656 46.7343 34.0078 44.625 33.4453L43.3593 33.1172C43.125 33 42.8672 32.9531 42.5859 32.9531C41.4843 32.9531 40.5937 33.8437 40.5937 34.9219C40.5937 35.8359 41.2031 36.5859 42.0468 36.8203V36.8437L43.5937 37.2656C47.8125 38.3906 52.1484 35.8828 53.2734 31.6875L57.375 16.4062C58.5 12.1641 55.9922 7.82812 51.7734 6.70312ZM42.9375 20.6953C43.3593 19.125 42.4218 17.4844 40.8515 17.0625C39.2812 16.6406 37.6406 17.5781 37.2187 19.1484C36.7968 20.7187 37.7343 22.3594 39.3047 22.7812C40.875 23.2266 42.4922 22.2891 42.9375 20.6953ZM30.7734 24.1875C28.5937 20.4141 23.7656 19.125 19.9687 21.2813L6.28122 29.1797C2.50778 31.3594 1.21872 36.2109 3.39841 39.9844L11.2968 53.6719C13.4765 57.4453 18.3281 58.7344 22.1015 56.5781L35.789 48.6797C39.5625 46.5 40.8515 41.6719 38.6953 37.875L30.7734 24.1875ZM13.0781 38.9766C11.6484 39.7969 9.84372 39.3047 9.02341 37.8984C8.20309 36.4687 8.69528 34.6641 10.1015 33.8437C11.5312 33.0234 13.3359 33.5156 14.1562 34.9219C14.9765 36.3516 14.4843 38.1562 13.0781 38.9766ZM19.9922 50.9531C18.5625 51.7734 16.7578 51.2812 15.9375 49.875C15.1172 48.4453 15.6093 46.6406 17.0156 45.8203C18.4453 45 20.25 45.4922 21.0703 46.8984C21.8906 48.3281 21.4218 50.1562 19.9922 50.9531ZM22.5234 41.5078C21.0937 42.3281 19.289 41.8359 18.4687 40.4297C17.6484 39 18.1406 37.1953 19.5468 36.375C20.9765 35.5547 22.7812 36.0469 23.6015 37.4531C24.4453 38.8828 23.9531 40.6875 22.5234 41.5078ZM25.0547 32.0625C23.625 32.8828 21.8203 32.3906 21 30.9844C20.1797 29.5547 20.6718 27.75 22.0781 26.9297C23.5078 26.1094 25.3125 26.6016 26.1328 28.0078C26.9531 29.4375 26.4843 31.2422 25.0547 32.0625ZM31.9687 44.0391C30.539 44.8594 28.7343 44.3672 27.914 42.9609C27.0937 41.5312 27.5859 39.7266 28.9922 38.9062C30.4218 38.0859 32.2265 38.5781 33.0468 39.9844C33.8906 41.4141 33.3984 43.2187 31.9687 44.0391ZM38.039 12.2344C38.4609 10.6641 37.5234 9.02344 35.9531 8.60156C34.3828 8.17969 32.7422 9.11719 32.3203 10.6875C31.8984 12.2578 32.8359 13.8984 34.4062 14.3203C35.9765 14.7422 37.6172 13.8047 38.039 12.2344ZM42.0937 27.6328C41.6718 29.2031 42.6093 30.8437 44.1797 31.2656C45.75 31.6875 47.3906 30.75 47.8125 29.1797C48.2343 27.6094 47.2968 25.9687 45.7265 25.5469C44.1328 25.1016 42.5156 26.0625 42.0937 27.6328Z" fill="#9A9A9A"/>
</g>
</g>
</g>
</svg>
