<svg width="58" height="50" viewBox="0 0 58 50" fill="none" xmlns="http://www.w3.org/2000/svg">
<g id="&#240;&#159;&#166;&#134; icon &#34;users&#34;">
<path id="Vector" d="M22.8314 0.00499081C30.0299 0.00499081 35.8655 5.84065 35.8655 13.0391C35.8655 20.2375 30.0299 26.073 22.8314 26.073C15.633 26.073 9.79741 20.2376 9.79741 13.0391C9.80628 5.84414 15.6365 0.0138629 22.8306 0.00504623H22.8314L22.8314 0.00499081ZM22.8314 22.2016C27.8918 22.2016 31.9939 18.0993 31.9939 13.0391C31.9939 7.97884 27.8917 3.87658 22.8314 3.87658C17.7711 3.87658 13.6689 7.97884 13.6689 13.0391C13.6748 18.097 17.7734 22.1957 22.8309 22.2016H22.8314H22.8314ZM41.8147 49.1445L40.0079 40.2143C38.3965 32.0614 31.3032 25.9986 22.794 25.9986C14.2848 25.9986 7.1916 32.0614 5.5985 40.1029L5.58009 40.2143L3.79928 49.1471L0 48.3805L1.78086 39.4503C3.76712 29.5167 12.418 22.1363 22.7927 22.1363C33.1674 22.1363 41.8184 29.5168 43.7817 39.3136L43.8046 39.4504L45.6111 48.3677L41.8147 49.1445ZM35.1686 26.0627H35.1549C32.457 26.0627 29.9513 25.2391 27.8758 23.8295L27.9212 23.8586L30.0789 20.6452C31.5123 21.6192 33.2811 22.2003 35.1855 22.2003C40.2459 22.2003 44.348 18.098 44.348 13.0377C44.348 7.97745 40.2458 3.87525 35.1855 3.87525C33.281 3.87525 31.5122 4.45637 30.0467 5.45083L30.0789 5.43031L27.9211 2.21704C29.9615 0.828549 32.48 0 35.1921 0C42.3891 0 48.2236 5.83438 48.2236 13.0314C48.2236 20.2285 42.3891 26.0628 35.1921 26.0628H35.1671H35.1685L35.1686 26.0627ZM54.2033 49.142L52.3967 40.1859C50.7457 32.0693 43.6665 26.047 35.1808 26.047C33.1892 26.047 31.2751 26.3787 29.4908 26.9899L29.6143 26.9532L28.3857 23.2856C30.4133 22.5842 32.7499 22.1792 35.1812 22.1792C45.5361 22.1792 54.1752 29.5261 56.1698 39.2917L56.1933 39.4296L58 48.3805L54.2033 49.142Z" fill="#9A9A9A"/>
</g>
</svg>
