<?xml version="1.0" standalone="no"?>
<!DOCTYPE svg PUBLIC "-//W3C//DTD SVG 20010904//EN"
 "http://www.w3.org/TR/2001/REC-SVG-20010904/DTD/svg10.dtd">
<svg version="1.0" xmlns="http://www.w3.org/2000/svg"
 width="700.000000pt" height="700.000000pt" viewBox="0 0 700.000000 700.000000"
 preserveAspectRatio="xMidYMid meet">
<metadata>
Created by potrace 1.14, written by Peter Selinger 2001-2017
</metadata>
<g transform="translate(0.000000,700.000000) scale(0.100000,-0.100000)"
fill="#000000" stroke="none">
<path d="M3362 6228 c-212 -31 -392 -196 -447 -408 -15 -58 -17 -139 -17 -755
0 -379 1 -702 1 -717 l1 -27 393 -3 c433 -5 443 -6 584 -73 206 -97 347 -263
415 -487 20 -69 22 -96 26 -465 3 -359 5 -393 20 -394 68 -3 1412 1 1432 4
116 19 217 72 305 161 74 75 111 139 141 241 17 56 18 143 18 1240 0 649 -3
1203 -7 1232 -28 208 -200 391 -416 445 -54 13 -2361 19 -2449 6z m1304 -1212
c245 -65 375 -330 274 -559 -116 -263 -462 -326 -664 -120 -158 160 -155 416
6 574 58 56 104 83 181 104 67 18 139 18 203 1z"/>
<path d="M1268 4098 c-228 -22 -405 -163 -476 -377 l-26 -76 0 -1190 c0 -655
3 -1212 7 -1239 35 -224 232 -412 465 -444 31 -4 588 -7 1237 -7 1105 1 1183
3 1230 19 221 79 353 231 391 450 4 22 7 566 7 1210 0 908 -3 1183 -12 1226
-50 216 -235 392 -447 426 -55 8 -2290 11 -2376 2z m1953 -608 c125 -24 237
-111 292 -227 28 -59 32 -80 34 -160 1 -63 -3 -107 -14 -140 -68 -201 -282
-320 -484 -269 -82 21 -143 57 -199 116 -154 161 -151 407 6 566 98 99 229
140 365 114z m-1330 -1376 c74 -22 129 -56 182 -113 201 -215 117 -565 -159
-662 -278 -98 -561 119 -541 413 17 258 271 435 518 362z"/>
</g>
</svg>
